Coordinates
version=1
nRows=8
nColumns=40
inDegrees=yes

Units are S.I. units (second, meters, Newtons, ...)
Angles are in degrees.

endheader
time	pelvis_tilt	pelvis_list	pelvis_rotation	pelvis_tx	pelvis_ty	pelvis_tz	hip_flexion_r	hip_adduction_r	hip_rotation_r	knee_angle_r	knee_angle_r_beta	ankle_angle_r	subtalar_angle_r	mtp_angle_r	hip_flexion_l	hip_adduction_l	hip_rotation_l	knee_angle_l	knee_angle_l_beta	ankle_angle_l	subtalar_angle_l	mtp_angle_l	lumbar_extension	lumbar_bending	lumbar_rotation	arm_flex_r	arm_add_r	arm_rot_r	elbow_flex_r	pro_sup_r	wrist_flex_r	wrist_dev_r	arm_flex_l	arm_add_l	arm_rot_l	elbow_flex_l	pro_sup_l	wrist_flex_l	wrist_dev_l
      3.51000000	     -5.06807656	     -5.82271273	      0.79887839	      0.89892279	      0.93021672	      0.56064060	     10.23046516	      4.68848175	    -17.79471898	     12.60470586	     12.60470586	      8.70867703	     -2.05033156	     -5.41043325	     39.54274495	    -14.18330254	      0.42782303	     49.16054016	     49.16054016	     11.49194262	    -18.70194416	     16.23979672	    -14.41681291	      6.23214457	      1.84754540	     37.35909134	    -13.67047576	      8.00107072	     86.74016155	     44.15724658	      0.00000000	      0.00000000	     -1.27964422	     -6.71548483	     -6.92296778	     29.15098883	     47.16595231	      0.00000000	      0.00000000
      3.52171429	     -5.23664279	     -5.83942359	      0.85184658	      0.89739696	      0.92994514	      0.56066490	      9.75551361	      4.74762341	    -17.92808040	     12.25909862	     12.25909862	      8.95974938	     -1.63460694	     -5.50940762	     40.16807673	    -13.83555330	      0.74388779	     46.49965373	     46.49965373	     11.22529413	    -18.40129845	     16.10283868	    -14.40870680	      6.19090800	      1.57021692	     39.49891550	    -13.22530202	      8.20087083	     89.23747833	     44.09419124	      0.00000000	      0.00000000	     -2.19802123	     -6.73142043	     -7.01758685	     27.81154802	     47.15806998	      0.00000000	      0.00000000
      3.53342857	     -5.40766261	     -5.84623172	      0.86331871	      0.89601687	      0.92959481	      0.56054865	      9.27905853	      4.77592369	    -18.09787482	     11.92944607	     11.92944607	      9.24578170	     -1.10951260	     -5.63373593	     40.66367381	    -13.47314543	      1.11217195	     43.82235982	     43.82235982	     10.97048320	    -17.90093315	     15.71335701	    -14.37387825	      6.14705990	      1.48919125	     41.50585033	    -13.03371350	      8.43584272	     91.71228108	     44.03161417	      0.00000000	      0.00000000	     -2.96912295	     -6.71771590	     -7.11760379	     26.56636917	     47.15563843	      0.00000000	      0.00000000
      3.54514286	     -5.61569486	     -5.92376750	      0.83567687	      0.89477172	      0.92911256	      0.56034943	      8.85378579	      4.84712749	    -18.42937909	     11.65828342	     11.65828342	      9.58035171	     -0.27214008	     -5.66515312	     41.01070538	    -13.23497624	      1.45393420	     40.97729580	     40.97729580	      9.90802308	    -17.28386415	     13.01236785	    -14.28219050	      6.18600361	      2.26337150	     42.84583065	    -13.89626393	      8.43423621	     95.20654005	     44.02418733	      0.00000000	      0.00000000	     -2.79350748	     -6.48506254	     -7.71407585	     24.24046439	     47.22980493	      0.00000000	      0.00000000
      3.55685714	     -5.77478748	     -5.95223936	      0.76605002	      0.89373159	      0.92868784	      0.56008660	      8.32889906	      4.91282334	    -18.43795892	     11.30547566	     11.30547566	      9.87940462	      0.13109650	     -5.74219148	     41.28050174	    -12.97520277	      1.80134429	     38.40903371	     38.40903371	      9.97400001	    -16.21589865	     13.03072799	    -14.21640981	      6.15911585	      2.18574344	     44.78385075	    -13.49677424	      8.39125789	     96.81211012	     43.99521242	      0.00000000	      0.00000000	     -3.76388387	     -6.52530162	     -7.78037125	     23.74998150	     47.21745318	      0.00000000	      0.00000000
      3.56857143	     -5.91458712	     -6.01241583	      0.68838275	      0.89291918	      0.92822923	      0.55971172	      7.73086845	      5.00482420	    -18.52548384	     10.88497286	     10.88497286	     10.16591300	      0.73278533	     -5.80609549	     41.42890349	    -12.79248677	      2.09940598	     35.91608040	     35.91608040	     10.05276541	    -14.97812426	     12.92234916	    -14.14224949	      6.18816395	      2.15815083	     46.53752355	    -13.21102437	      8.49337839	     98.57711236	     43.95654585	      0.00000000	      0.00000000	     -4.67765450	     -6.52808432	     -7.83410970	     23.38992719	     47.20289223	      0.00000000	      0.00000000
      3.58028571	     -6.04226340	     -6.11537724	      0.57718539	      0.89234908	      0.92768833	      0.55925692	      7.10050591	      5.13997986	    -18.61059868	     10.46502937	     10.46502937	     10.47383535	      1.37131964	     -5.85672130	     41.46465650	    -12.70486751	      2.30507912	     33.53302125	     33.53302125	     10.14565210	    -13.72870245	     12.84107166	    -14.02824330	      6.27725842	      2.26109021	     48.07656021	    -13.08644993	      8.59237128	    100.18107956	     43.92172991	      0.00000000	      0.00000000	     -5.54567036	     -6.51597027	     -7.87395851	     23.19637019	     47.18544820	      0.00000000	      0.00000000
      3.59200000	     -6.12377172	     -6.29521715	      0.44903764	      0.89213179	      0.92711324	      0.55870880	      6.32246492	      5.34683175	    -18.93422556	      9.91453709	      9.91453709	     10.82450678	      2.50913564	     -5.73815529	     41.36377882	    -12.74729602	      2.39128220	     31.30881947	     31.30881947	     10.15034865	    -12.51811291	     12.36823436	    -13.95305332	      6.44374934	      2.53045522	     49.29926845	    -13.33854227	      8.90246471	    102.42508317	     43.88479812	      0.00000000	      0.00000000	     -6.48962287	     -6.49142313	     -7.87604798	     23.57235205	     47.13866730	      0.00000000	      0.00000000
